# xmcd
#
# Track frame offsets: 
#        150
#        17382
#        34631
#        61083
#
# Disc length: 2036 seconds
#
# Revision: 0
# Processed by: cddbd v1.5.2PL0 Copyright (c) Steve Scherf et al.
# Submitted via: ExactAudioCopyFreeDBPlugin 1.0
#
DISCID=2007f204
DTITLE=Bushido, Chakuza and Kay One - Alles gute kommt von unten (Single
DTITLE=)
DYEAR=2007
DGENRE=Rap and Hip-Hop
TTITLE0=Alles gute kommt von unten
TTITLE1=Alles gute kommt von unten (Instrumental)
TTITLE2=Saad - Asphalt Massaker
TTITLE3=Video
EXTD=
EXTT0=
EXTT1=
EXTT2=
EXTT3=
PLAYORDER=
